<svg xmlns="http://www.w3.org/2000/svg" viewBox="0 0 100 120">
  <rect x="0" y="0" width="100" height="120" rx="20" fill="#C81F30"/>
  <g fill="#FFFFFF">
    <rect x="47" y="90" width="6" height="15" rx="1"/>
    <path d="M47 94 L31 101 L34 103 L47 98 Z"/>
    <path d="M53 94 L69 101 L66 103 L53 98 Z"/>
    <path d="M50 60 C 32 60, 19 78, 17 90 C 17 94, 21 95, 25 93 C 32 89, 41 87, 50 87 C 59 87, 68 89, 75 93 C 79 95, 83 94, 83 90 C 81 78, 68 60, 50 60 Z"/>
    <path d="M50 36 C 38 36, 28 50, 25 60 C 24 64, 28 65, 32 63 C 38 60, 44 58, 50 58 C 56 58, 62 60, 68 63 C 72 65, 76 64, 75 60 C 72 50, 62 36, 50 36 Z"/>
    <path d="M50 18 C 42 18, 35 28, 33 36 C 32 39, 35 40, 38 38 C 42 36, 46 34, 50 34 C 54 34, 58 36, 62 38 C 65 40, 68 39, 67 36 C 65 28, 58 18, 50 18 Z"/>
  </g>
</svg>
